# xmcd
#
# Track frame offsets:
#	150
#	16538
#	32919
#	50943
#	67280
#	82689
#	100903
#	119633
#	136658
#	155941
#	173588
#	191521
#
# Disc length: 2805 seconds
# Revision: 0
# Processed by: cddbd v1.5.2PL0 Copyright (c) Steve Scherf et al.
# Submitted via: dBpowerAMP V12.0
#
DISCID=a00af30c
DTITLE=Jared Rogerson - Peace Love and Horses
DYEAR=2011
DGENRE=Country
TTITLE0=Peace, Love and Horses
TTITLE1=Addicted
TTITLE2=Just One Of The Guys
TTITLE3=Honky Tonk Halos
TTITLE4=Winter Baja Sun
TTITLE5=Have A Good Life
TTITLE6=The Same Dark Trail
TTITLE7=Steppin' Down
TTITLE8=End Of Days
TTITLE9=People Forget
TTITLE10=Sweetwater
TTITLE11=Ride My Horse More
EXTD=
EXTT0=
EXTT1=
EXTT2=
EXTT3=
EXTT4=
EXTT5=
EXTT6=
EXTT7=
EXTT8=
EXTT9=
EXTT10=
EXTT11=
PLAYORDER=
